# xmcd CD database file
#
# Track frame offsets:
#	150
#	50405
#	85855
#	119735
#	156297
#	195870
#
# Disc length: 3435 seconds
#
# Revision: 0
# Processed by: cddbd v1.5PL3 Copyright (c) Steve Scherf et al.
# Submitted via: freeDB plugin v1.0
#
DISCID=470d6906
DTITLE=野村流音楽協会師範　玉城　宗吉 - 琉球古典音楽−野村流−　工工四全集３
DYEAR=1900
DGENRE=Misc
TTITLE0=作田節
TTITLE1=じゃんな節
TTITLE2=首里節
TTITLE3=しょどん節
TTITLE4=暁節
TTITLE5=茶屋節
EXTD=
EXTT0=
EXTT1=
EXTT2=
EXTT3=
EXTT4=
EXTT5=
PLAYORDER=
